<svg version= "1.1"
    xmlns="http://www.w3.org/2000/svg"
    xmlnsXlink="http://www.w3.org/1999/xlink">
    <defs>
        <symbol id='icon-cross'>
            <svg
              xmlns="http://www.w3.org/2000/svg"
              width="50"
              height="50"
              fill="currentColor"
              className="bi bi-x"
              viewBox="0 0 16 16"
            >
              <path d="M4.646 4.646a.5.5 0 0 1 .708 0L8 7.293l2.646-2.647a.5.5 0 0 1 .708.708L8.707 8l2.647 2.646a.5.5 0 0 1-.708.708L8 8.707l-2.646 2.647a.5.5 0 0 1-.708-.708L7.293 8 4.646 5.354a.5.5 0 0 1 0-.708z" />
            </svg>
        </symbol>
        <symbol id='icon-percentage'>
          <svg
            xmlns="http://www.w3.org/2000/svg"
            width="20"
            height="20"
            fill="currentColor"
            className="bi bi-percent"
            viewBox="0 0 16 16"
          >
            <path d="M13.442 2.558a.625.625 0 0 1 0 .884l-10 10a.625.625 0 1 1-.884-.884l10-10a.625.625 0 0 1 .884 0zM4.5 6a1.5 1.5 0 1 1 0-3 1.5 1.5 0 0 1 0 3zm0 1a2.5 2.5 0 1 0 0-5 2.5 2.5 0 0 0 0 5zm7 6a1.5 1.5 0 1 1 0-3 1.5 1.5 0 0 1 0 3zm0 1a2.5 2.5 0 1 0 0-5 2.5 2.5 0 0 0 0 5z" />
          </svg>
        </symbol>
    </defs>
</svg>